<?xml version="1.0" encoding="utf-8"?>
<!-- Generator: Adobe Illustrator 24.3.0, SVG Export Plug-In . SVG Version: 6.00 Build 0)  -->
<svg version="1.1" id="Layer_1" xmlns="http://www.w3.org/2000/svg" xmlns:xlink="http://www.w3.org/1999/xlink" x="0px" y="0px"
	 viewBox="0 0 1669 1064" style="enable-background:new 0 0 1669 1064;" xml:space="preserve">
<style type="text/css">
	.st0{fill:#DA9305;stroke:#BF4D06;stroke-width:2;stroke-miterlimit:10;}
	.st1{fill:#B24D06;}
	.st2{fill:#B7B43A;}
	.st3{fill:#B73919;}
	.st4{fill:#BF4D06;}
	.st5{fill:#647201;}
</style>
<g>
	<path class="st0" d="M235,353.05H54c-23.65,0-43-19.35-43-43v-259c0-23.65,19.35-43,43-43h181c23.65,0,43,19.35,43,43v259
		C278,333.7,258.65,353.05,235,353.05z"/>
	<path class="st1" d="M210.69,321.64H78.31c-23.65,0-43-19.35-43-43V82.46c0-23.65,19.35-43,43-43h132.38c23.65,0,43,19.35,43,43
		v196.18C253.69,302.29,234.34,321.64,210.69,321.64z"/>
	<path class="st2" d="M187.04,291.08h-85.07c-23.65,0-43-19.35-43-43V113.03c0-23.65,19.35-43,43-43h85.07c23.65,0,43,19.35,43,43
		v135.05C230.04,271.73,210.69,291.08,187.04,291.08z"/>
	<path class="st3" d="M179.03,267.81h-69.07c-18.15,0-33-14.85-33-33V126.29c0-18.15,14.85-33,33-33h69.07c18.15,0,33,14.85,33,33
		v108.53C212.03,252.96,197.18,267.81,179.03,267.81z"/>
	<path class="st4" d="M163.43,247.65h-37.86c-18.15,0-33-14.85-33-33v-68.2c0-18.15,14.85-33,33-33h37.86c18.15,0,33,14.85,33,33
		v68.2C196.43,232.8,181.58,247.65,163.43,247.65z"/>
	<path class="st5" d="M143.85,224.43L143.85,224.43c-18.15,0-33-14.85-33-33v-19.04c0-18.15,14.85-33,33-33h0
		c18.15,0,33,14.85,33,33v19.04C176.85,209.58,162,224.43,143.85,224.43z"/>
</g>
<g>
	<path class="st0" d="M512,353.05H331c-23.65,0-43-19.35-43-43v-259c0-23.65,19.35-43,43-43h181c23.65,0,43,19.35,43,43v259
		C555,333.7,535.65,353.05,512,353.05z"/>
	<path class="st1" d="M487.69,321.64H355.31c-23.65,0-43-19.35-43-43V82.46c0-23.65,19.35-43,43-43h132.38c23.65,0,43,19.35,43,43
		v196.18C530.69,302.29,511.34,321.64,487.69,321.64z"/>
	<path class="st2" d="M464.04,291.08h-85.07c-23.65,0-43-19.35-43-43V113.03c0-23.65,19.35-43,43-43h85.07c23.65,0,43,19.35,43,43
		v135.05C507.04,271.73,487.69,291.08,464.04,291.08z"/>
	<path class="st3" d="M456.03,267.81h-69.07c-18.15,0-33-14.85-33-33V126.29c0-18.15,14.85-33,33-33h69.07c18.15,0,33,14.85,33,33
		v108.53C489.03,252.96,474.18,267.81,456.03,267.81z"/>
	<path class="st4" d="M440.43,247.65h-37.86c-18.15,0-33-14.85-33-33v-68.2c0-18.15,14.85-33,33-33h37.86c18.15,0,33,14.85,33,33
		v68.2C473.43,232.8,458.58,247.65,440.43,247.65z"/>
	<path class="st5" d="M420.85,224.43L420.85,224.43c-18.15,0-33-14.85-33-33v-19.04c0-18.15,14.85-33,33-33h0
		c18.15,0,33,14.85,33,33v19.04C453.85,209.58,439,224.43,420.85,224.43z"/>
</g>
<g>
	<path class="st0" d="M789,353.05H608c-23.65,0-43-19.35-43-43v-259c0-23.65,19.35-43,43-43h181c23.65,0,43,19.35,43,43v259
		C832,333.7,812.65,353.05,789,353.05z"/>
	<path class="st1" d="M764.69,321.64H632.31c-23.65,0-43-19.35-43-43V82.46c0-23.65,19.35-43,43-43h132.38c23.65,0,43,19.35,43,43
		v196.18C807.69,302.29,788.34,321.64,764.69,321.64z"/>
	<path class="st2" d="M741.04,291.08h-85.07c-23.65,0-43-19.35-43-43V113.03c0-23.65,19.35-43,43-43h85.07c23.65,0,43,19.35,43,43
		v135.05C784.04,271.73,764.69,291.08,741.04,291.08z"/>
	<path class="st3" d="M733.03,267.81h-69.07c-18.15,0-33-14.85-33-33V126.29c0-18.15,14.85-33,33-33h69.07c18.15,0,33,14.85,33,33
		v108.53C766.03,252.96,751.18,267.81,733.03,267.81z"/>
	<path class="st4" d="M717.43,247.65h-37.86c-18.15,0-33-14.85-33-33v-68.2c0-18.15,14.85-33,33-33h37.86c18.15,0,33,14.85,33,33
		v68.2C750.43,232.8,735.58,247.65,717.43,247.65z"/>
	<path class="st5" d="M697.85,224.43L697.85,224.43c-18.15,0-33-14.85-33-33v-19.04c0-18.15,14.85-33,33-33h0
		c18.15,0,33,14.85,33,33v19.04C730.85,209.58,716,224.43,697.85,224.43z"/>
</g>
<g>
	<path class="st0" d="M1066,353.05H885c-23.65,0-43-19.35-43-43v-259c0-23.65,19.35-43,43-43h181c23.65,0,43,19.35,43,43v259
		C1109,333.7,1089.65,353.05,1066,353.05z"/>
	<path class="st1" d="M1041.69,321.64H909.31c-23.65,0-43-19.35-43-43V82.46c0-23.65,19.35-43,43-43h132.38c23.65,0,43,19.35,43,43
		v196.18C1084.69,302.29,1065.34,321.64,1041.69,321.64z"/>
	<path class="st2" d="M1018.04,291.08h-85.07c-23.65,0-43-19.35-43-43V113.03c0-23.65,19.35-43,43-43h85.07c23.65,0,43,19.35,43,43
		v135.05C1061.04,271.73,1041.69,291.08,1018.04,291.08z"/>
	<path class="st3" d="M1010.03,267.81h-69.07c-18.15,0-33-14.85-33-33V126.29c0-18.15,14.85-33,33-33h69.07c18.15,0,33,14.85,33,33
		v108.53C1043.03,252.96,1028.18,267.81,1010.03,267.81z"/>
	<path class="st4" d="M994.43,247.65h-37.86c-18.15,0-33-14.85-33-33v-68.2c0-18.15,14.85-33,33-33h37.86c18.15,0,33,14.85,33,33
		v68.2C1027.43,232.8,1012.58,247.65,994.43,247.65z"/>
	<path class="st5" d="M974.85,224.43L974.85,224.43c-18.15,0-33-14.85-33-33v-19.04c0-18.15,14.85-33,33-33h0
		c18.15,0,33,14.85,33,33v19.04C1007.85,209.58,993,224.43,974.85,224.43z"/>
</g>
<g>
	<path class="st0" d="M1343,353.05h-181c-23.65,0-43-19.35-43-43v-259c0-23.65,19.35-43,43-43h181c23.65,0,43,19.35,43,43v259
		C1386,333.7,1366.65,353.05,1343,353.05z"/>
	<path class="st1" d="M1318.69,321.64h-132.38c-23.65,0-43-19.35-43-43V82.46c0-23.65,19.35-43,43-43h132.38c23.65,0,43,19.35,43,43
		v196.18C1361.69,302.29,1342.34,321.64,1318.69,321.64z"/>
	<path class="st2" d="M1295.04,291.08h-85.07c-23.65,0-43-19.35-43-43V113.03c0-23.65,19.35-43,43-43h85.07c23.65,0,43,19.35,43,43
		v135.05C1338.04,271.73,1318.69,291.08,1295.04,291.08z"/>
	<path class="st3" d="M1287.03,267.81h-69.07c-18.15,0-33-14.85-33-33V126.29c0-18.15,14.85-33,33-33h69.07c18.15,0,33,14.85,33,33
		v108.53C1320.03,252.96,1305.18,267.81,1287.03,267.81z"/>
	<path class="st4" d="M1271.43,247.65h-37.86c-18.15,0-33-14.85-33-33v-68.2c0-18.15,14.85-33,33-33h37.86c18.15,0,33,14.85,33,33
		v68.2C1304.43,232.8,1289.58,247.65,1271.43,247.65z"/>
	<path class="st5" d="M1251.85,224.43L1251.85,224.43c-18.15,0-33-14.85-33-33v-19.04c0-18.15,14.85-33,33-33l0,0
		c18.15,0,33,14.85,33,33v19.04C1284.85,209.58,1270,224.43,1251.85,224.43z"/>
</g>
<g>
	<path class="st0" d="M1620,353.05h-181c-23.65,0-43-19.35-43-43v-259c0-23.65,19.35-43,43-43h181c23.65,0,43,19.35,43,43v259
		C1663,333.7,1643.65,353.05,1620,353.05z"/>
	<path class="st1" d="M1595.69,321.64h-132.38c-23.65,0-43-19.35-43-43V82.46c0-23.65,19.35-43,43-43h132.38c23.65,0,43,19.35,43,43
		v196.18C1638.69,302.29,1619.34,321.64,1595.69,321.64z"/>
	<path class="st2" d="M1572.04,291.08h-85.07c-23.65,0-43-19.35-43-43V113.03c0-23.65,19.35-43,43-43h85.07c23.65,0,43,19.35,43,43
		v135.05C1615.04,271.73,1595.69,291.08,1572.04,291.08z"/>
	<path class="st3" d="M1564.03,267.81h-69.07c-18.15,0-33-14.85-33-33V126.29c0-18.15,14.85-33,33-33h69.07c18.15,0,33,14.85,33,33
		v108.53C1597.03,252.96,1582.18,267.81,1564.03,267.81z"/>
	<path class="st4" d="M1548.43,247.65h-37.86c-18.15,0-33-14.85-33-33v-68.2c0-18.15,14.85-33,33-33h37.86c18.15,0,33,14.85,33,33
		v68.2C1581.43,232.8,1566.58,247.65,1548.43,247.65z"/>
	<path class="st5" d="M1528.85,224.43L1528.85,224.43c-18.15,0-33-14.85-33-33v-19.04c0-18.15,14.85-33,33-33l0,0
		c18.15,0,33,14.85,33,33v19.04C1561.85,209.58,1547,224.43,1528.85,224.43z"/>
</g>
<g>
	<path class="st0" d="M230.71,704.91h-181c-23.65,0-43-19.35-43-43v-259c0-23.65,19.35-43,43-43h181c23.65,0,43,19.35,43,43v259
		C273.71,685.56,254.36,704.91,230.71,704.91z"/>
	<path class="st1" d="M206.4,673.5H74.01c-23.65,0-43-19.35-43-43V434.32c0-23.65,19.35-43,43-43H206.4c23.65,0,43,19.35,43,43
		V630.5C249.4,654.15,230.05,673.5,206.4,673.5z"/>
	<path class="st2" d="M182.74,642.94H97.67c-23.65,0-43-19.35-43-43V464.89c0-23.65,19.35-43,43-43h85.07c23.65,0,43,19.35,43,43
		v135.05C225.74,623.59,206.39,642.94,182.74,642.94z"/>
	<path class="st3" d="M174.74,619.67h-69.07c-18.15,0-33-14.85-33-33V478.15c0-18.15,14.85-33,33-33h69.07c18.15,0,33,14.85,33,33
		v108.52C207.74,604.82,192.89,619.67,174.74,619.67z"/>
	<path class="st4" d="M159.14,599.51h-37.86c-18.15,0-33-14.85-33-33v-68.2c0-18.15,14.85-33,33-33h37.86c18.15,0,33,14.85,33,33
		v68.2C192.14,584.66,177.29,599.51,159.14,599.51z"/>
	<path class="st5" d="M139.55,576.29L139.55,576.29c-18.15,0-33-14.85-33-33v-19.04c0-18.15,14.85-33,33-33h0
		c18.15,0,33,14.85,33,33v19.04C172.55,561.44,157.7,576.29,139.55,576.29z"/>
</g>
<g>
	<path class="st0" d="M507.71,704.91h-181c-23.65,0-43-19.35-43-43v-259c0-23.65,19.35-43,43-43h181c23.65,0,43,19.35,43,43v259
		C550.71,685.56,531.36,704.91,507.71,704.91z"/>
	<path class="st1" d="M483.4,673.5H351.01c-23.65,0-43-19.35-43-43V434.32c0-23.65,19.35-43,43-43H483.4c23.65,0,43,19.35,43,43
		V630.5C526.4,654.15,507.05,673.5,483.4,673.5z"/>
	<path class="st2" d="M459.74,642.94h-85.07c-23.65,0-43-19.35-43-43V464.89c0-23.65,19.35-43,43-43h85.07c23.65,0,43,19.35,43,43
		v135.05C502.74,623.59,483.39,642.94,459.74,642.94z"/>
	<path class="st3" d="M451.74,619.67h-69.07c-18.15,0-33-14.85-33-33V478.15c0-18.15,14.85-33,33-33h69.07c18.15,0,33,14.85,33,33
		v108.52C484.74,604.82,469.89,619.67,451.74,619.67z"/>
	<path class="st4" d="M436.14,599.51h-37.86c-18.15,0-33-14.85-33-33v-68.2c0-18.15,14.85-33,33-33h37.86c18.15,0,33,14.85,33,33
		v68.2C469.14,584.66,454.29,599.51,436.14,599.51z"/>
	<path class="st5" d="M416.55,576.29L416.55,576.29c-18.15,0-33-14.85-33-33v-19.04c0-18.15,14.85-33,33-33h0
		c18.15,0,33,14.85,33,33v19.04C449.55,561.44,434.7,576.29,416.55,576.29z"/>
</g>
<g>
	<path class="st0" d="M231.71,1057.91h-181c-23.65,0-43-19.35-43-43v-259c0-23.65,19.35-43,43-43h181c23.65,0,43,19.35,43,43v259
		C274.71,1038.56,255.36,1057.91,231.71,1057.91z"/>
	<path class="st1" d="M207.4,1026.5H75.01c-23.65,0-43-19.35-43-43V787.32c0-23.65,19.35-43,43-43H207.4c23.65,0,43,19.35,43,43
		V983.5C250.4,1007.15,231.05,1026.5,207.4,1026.5z"/>
	<path class="st2" d="M183.74,995.94H98.67c-23.65,0-43-19.35-43-43V817.89c0-23.65,19.35-43,43-43h85.07c23.65,0,43,19.35,43,43
		v135.05C226.74,976.59,207.39,995.94,183.74,995.94z"/>
	<path class="st3" d="M175.74,972.67h-69.07c-18.15,0-33-14.85-33-33V831.15c0-18.15,14.85-33,33-33h69.07c18.15,0,33,14.85,33,33
		v108.53C208.74,957.82,193.89,972.67,175.74,972.67z"/>
	<path class="st4" d="M160.14,952.51h-37.86c-18.15,0-33-14.85-33-33v-68.2c0-18.15,14.85-33,33-33h37.86c18.15,0,33,14.85,33,33
		v68.2C193.14,937.66,178.29,952.51,160.14,952.51z"/>
	<path class="st5" d="M140.55,929.29L140.55,929.29c-18.15,0-33-14.85-33-33v-19.04c0-18.15,14.85-33,33-33h0
		c18.15,0,33,14.85,33,33v19.04C173.55,914.44,158.7,929.29,140.55,929.29z"/>
</g>
<g>
	<path class="st0" d="M508.71,1057.91h-181c-23.65,0-43-19.35-43-43v-259c0-23.65,19.35-43,43-43h181c23.65,0,43,19.35,43,43v259
		C551.71,1038.56,532.36,1057.91,508.71,1057.91z"/>
	<path class="st1" d="M484.4,1026.5H352.01c-23.65,0-43-19.35-43-43V787.32c0-23.65,19.35-43,43-43H484.4c23.65,0,43,19.35,43,43
		V983.5C527.4,1007.15,508.05,1026.5,484.4,1026.5z"/>
	<path class="st2" d="M460.74,995.94h-85.07c-23.65,0-43-19.35-43-43V817.89c0-23.65,19.35-43,43-43h85.07c23.65,0,43,19.35,43,43
		v135.05C503.74,976.59,484.39,995.94,460.74,995.94z"/>
	<path class="st3" d="M452.74,972.67h-69.07c-18.15,0-33-14.85-33-33V831.15c0-18.15,14.85-33,33-33h69.07c18.15,0,33,14.85,33,33
		v108.53C485.74,957.82,470.89,972.67,452.74,972.67z"/>
	<path class="st4" d="M437.14,952.51h-37.86c-18.15,0-33-14.85-33-33v-68.2c0-18.15,14.85-33,33-33h37.86c18.15,0,33,14.85,33,33
		v68.2C470.14,937.66,455.29,952.51,437.14,952.51z"/>
	<path class="st5" d="M417.55,929.29L417.55,929.29c-18.15,0-33-14.85-33-33v-19.04c0-18.15,14.85-33,33-33h0
		c18.15,0,33,14.85,33,33v19.04C450.55,914.44,435.7,929.29,417.55,929.29z"/>
</g>
<g>
	<path class="st0" d="M784,1059H603.71c-23.65,0-43-19.35-43-43V402.91c0-23.65,19.35-43,43-43H784c23.65,0,43,19.35,43,43V1016
		C827,1039.65,807.65,1059,784,1059z"/>
	<path class="st1" d="M759.76,995.35H627.95c-23.65,0-43-19.35-43-43V466.56c0-23.65,19.35-43,43-43h131.81c23.65,0,43,19.35,43,43
		v485.79C802.76,976,783.41,995.35,759.76,995.35z"/>
	<path class="st2" d="M736.16,933.42h-84.62c-23.65,0-43-19.35-43-43V528.49c0-23.65,19.35-43,43-43h84.62c23.65,0,43,19.35,43,43
		v361.92C779.16,914.07,759.81,933.42,736.16,933.42z"/>
	<path class="st3" d="M728.21,886.28H659.5c-18.15,0-33-14.85-33-33V565.63c0-18.15,14.85-33,33-33h68.71c18.15,0,33,14.85,33,33
		v287.65C761.21,871.43,746.36,886.28,728.21,886.28z"/>
	<path class="st4" d="M712.65,845.43h-37.59c-18.15,0-33-14.85-33-33V606.49c0-18.15,14.85-33,33-33h37.59c18.15,0,33,14.85,33,33
		v205.94C745.65,830.58,730.8,845.43,712.65,845.43z"/>
	<path class="st5" d="M693.2,798.37L693.2,798.37c-18.1,0-32.91-14.81-32.91-32.91V658.96c0-18.1,14.81-32.91,32.91-32.91h0
		c18.1,0,32.91,14.81,32.91,32.91v106.49C726.11,783.56,711.3,798.37,693.2,798.37z"/>
</g>
<g>
	<path class="st0" d="M1061,704.91H880c-23.65,0-43-19.35-43-43v-259c0-23.65,19.35-43,43-43h181c23.65,0,43,19.35,43,43v259
		C1104,685.56,1084.65,704.91,1061,704.91z"/>
	<path class="st1" d="M1036.69,673.5H904.31c-23.65,0-43-19.35-43-43V434.32c0-23.65,19.35-43,43-43h132.38c23.65,0,43,19.35,43,43
		V630.5C1079.69,654.15,1060.34,673.5,1036.69,673.5z"/>
	<path class="st2" d="M1013.04,642.94h-85.07c-23.65,0-43-19.35-43-43V464.89c0-23.65,19.35-43,43-43h85.07c23.65,0,43,19.35,43,43
		v135.05C1056.04,623.59,1036.69,642.94,1013.04,642.94z"/>
	<path class="st3" d="M1005.03,619.67h-69.07c-18.15,0-33-14.85-33-33V478.15c0-18.15,14.85-33,33-33h69.07c18.15,0,33,14.85,33,33
		v108.52C1038.03,604.82,1023.18,619.67,1005.03,619.67z"/>
	<path class="st4" d="M989.43,599.51h-37.86c-18.15,0-33-14.85-33-33v-68.2c0-18.15,14.85-33,33-33h37.86c18.15,0,33,14.85,33,33
		v68.2C1022.43,584.66,1007.58,599.51,989.43,599.51z"/>
	<path class="st5" d="M969.85,576.29L969.85,576.29c-18.15,0-33-14.85-33-33v-19.04c0-18.15,14.85-33,33-33h0
		c18.15,0,33,14.85,33,33v19.04C1002.85,561.44,988,576.29,969.85,576.29z"/>
</g>
<g>
	<path class="st0" d="M1338,704.91h-181c-23.65,0-43-19.35-43-43v-259c0-23.65,19.35-43,43-43h181c23.65,0,43,19.35,43,43v259
		C1381,685.56,1361.65,704.91,1338,704.91z"/>
	<path class="st1" d="M1313.69,673.5h-132.38c-23.65,0-43-19.35-43-43V434.32c0-23.65,19.35-43,43-43h132.38c23.65,0,43,19.35,43,43
		V630.5C1356.69,654.15,1337.34,673.5,1313.69,673.5z"/>
	<path class="st2" d="M1290.04,642.94h-85.07c-23.65,0-43-19.35-43-43V464.89c0-23.65,19.35-43,43-43h85.07c23.65,0,43,19.35,43,43
		v135.05C1333.04,623.59,1313.69,642.94,1290.04,642.94z"/>
	<path class="st3" d="M1282.03,619.67h-69.07c-18.15,0-33-14.85-33-33V478.15c0-18.15,14.85-33,33-33h69.07c18.15,0,33,14.85,33,33
		v108.52C1315.03,604.82,1300.18,619.67,1282.03,619.67z"/>
	<path class="st4" d="M1266.43,599.51h-37.86c-18.15,0-33-14.85-33-33v-68.2c0-18.15,14.85-33,33-33h37.86c18.15,0,33,14.85,33,33
		v68.2C1299.43,584.66,1284.58,599.51,1266.43,599.51z"/>
	<path class="st5" d="M1246.85,576.29L1246.85,576.29c-18.15,0-33-14.85-33-33v-19.04c0-18.15,14.85-33,33-33l0,0
		c18.15,0,33,14.85,33,33v19.04C1279.85,561.44,1265,576.29,1246.85,576.29z"/>
</g>
<g>
	<path class="st0" d="M1615,704.91h-181c-23.65,0-43-19.35-43-43v-259c0-23.65,19.35-43,43-43h181c23.65,0,43,19.35,43,43v259
		C1658,685.56,1638.65,704.91,1615,704.91z"/>
	<path class="st1" d="M1590.69,673.5h-132.38c-23.65,0-43-19.35-43-43V434.32c0-23.65,19.35-43,43-43h132.38c23.65,0,43,19.35,43,43
		V630.5C1633.69,654.15,1614.34,673.5,1590.69,673.5z"/>
	<path class="st2" d="M1567.04,642.94h-85.07c-23.65,0-43-19.35-43-43V464.89c0-23.65,19.35-43,43-43h85.07c23.65,0,43,19.35,43,43
		v135.05C1610.04,623.59,1590.69,642.94,1567.04,642.94z"/>
	<path class="st3" d="M1559.03,619.67h-69.07c-18.15,0-33-14.85-33-33V478.15c0-18.15,14.85-33,33-33h69.07c18.15,0,33,14.85,33,33
		v108.52C1592.03,604.82,1577.18,619.67,1559.03,619.67z"/>
	<path class="st4" d="M1543.43,599.51h-37.86c-18.15,0-33-14.85-33-33v-68.2c0-18.15,14.85-33,33-33h37.86c18.15,0,33,14.85,33,33
		v68.2C1576.43,584.66,1561.58,599.51,1543.43,599.51z"/>
	<path class="st5" d="M1523.85,576.29L1523.85,576.29c-18.15,0-33-14.85-33-33v-19.04c0-18.15,14.85-33,33-33l0,0
		c18.15,0,33,14.85,33,33v19.04C1556.85,561.44,1542,576.29,1523.85,576.29z"/>
</g>
<g>
	<path class="st0" d="M1061,1057.91H880c-23.65,0-43-19.35-43-43v-259c0-23.65,19.35-43,43-43h181c23.65,0,43,19.35,43,43v259
		C1104,1038.56,1084.65,1057.91,1061,1057.91z"/>
	<path class="st1" d="M1036.69,1026.5H904.31c-23.65,0-43-19.35-43-43V787.32c0-23.65,19.35-43,43-43h132.38c23.65,0,43,19.35,43,43
		V983.5C1079.69,1007.15,1060.34,1026.5,1036.69,1026.5z"/>
	<path class="st2" d="M1013.04,995.94h-85.07c-23.65,0-43-19.35-43-43V817.89c0-23.65,19.35-43,43-43h85.07c23.65,0,43,19.35,43,43
		v135.05C1056.04,976.59,1036.69,995.94,1013.04,995.94z"/>
	<path class="st3" d="M1005.03,972.67h-69.07c-18.15,0-33-14.85-33-33V831.15c0-18.15,14.85-33,33-33h69.07c18.15,0,33,14.85,33,33
		v108.53C1038.03,957.82,1023.18,972.67,1005.03,972.67z"/>
	<path class="st4" d="M989.43,952.51h-37.86c-18.15,0-33-14.85-33-33v-68.2c0-18.15,14.85-33,33-33h37.86c18.15,0,33,14.85,33,33
		v68.2C1022.43,937.66,1007.58,952.51,989.43,952.51z"/>
	<path class="st5" d="M969.85,929.29L969.85,929.29c-18.15,0-33-14.85-33-33v-19.04c0-18.15,14.85-33,33-33h0
		c18.15,0,33,14.85,33,33v19.04C1002.85,914.44,988,929.29,969.85,929.29z"/>
</g>
<g>
	<path class="st0" d="M1338,1057.91h-181c-23.65,0-43-19.35-43-43v-259c0-23.65,19.35-43,43-43h181c23.65,0,43,19.35,43,43v259
		C1381,1038.56,1361.65,1057.91,1338,1057.91z"/>
	<path class="st1" d="M1313.69,1026.5h-132.38c-23.65,0-43-19.35-43-43V787.32c0-23.65,19.35-43,43-43h132.38
		c23.65,0,43,19.35,43,43V983.5C1356.69,1007.15,1337.34,1026.5,1313.69,1026.5z"/>
	<path class="st2" d="M1290.04,995.94h-85.07c-23.65,0-43-19.35-43-43V817.89c0-23.65,19.35-43,43-43h85.07c23.65,0,43,19.35,43,43
		v135.05C1333.04,976.59,1313.69,995.94,1290.04,995.94z"/>
	<path class="st3" d="M1282.03,972.67h-69.07c-18.15,0-33-14.85-33-33V831.15c0-18.15,14.85-33,33-33h69.07c18.15,0,33,14.85,33,33
		v108.53C1315.03,957.82,1300.18,972.67,1282.03,972.67z"/>
	<path class="st4" d="M1266.43,952.51h-37.86c-18.15,0-33-14.85-33-33v-68.2c0-18.15,14.85-33,33-33h37.86c18.15,0,33,14.85,33,33
		v68.2C1299.43,937.66,1284.58,952.51,1266.43,952.51z"/>
	<path class="st5" d="M1246.85,929.29L1246.85,929.29c-18.15,0-33-14.85-33-33v-19.04c0-18.15,14.85-33,33-33l0,0
		c18.15,0,33,14.85,33,33v19.04C1279.85,914.44,1265,929.29,1246.85,929.29z"/>
</g>
<g>
	<path class="st0" d="M1615,1057.91h-181c-23.65,0-43-19.35-43-43v-259c0-23.65,19.35-43,43-43h181c23.65,0,43,19.35,43,43v259
		C1658,1038.56,1638.65,1057.91,1615,1057.91z"/>
	<path class="st1" d="M1590.69,1026.5h-132.38c-23.65,0-43-19.35-43-43V787.32c0-23.65,19.35-43,43-43h132.38
		c23.65,0,43,19.35,43,43V983.5C1633.69,1007.15,1614.34,1026.5,1590.69,1026.5z"/>
	<path class="st2" d="M1567.04,995.94h-85.07c-23.65,0-43-19.35-43-43V817.89c0-23.65,19.35-43,43-43h85.07c23.65,0,43,19.35,43,43
		v135.05C1610.04,976.59,1590.69,995.94,1567.04,995.94z"/>
	<path class="st3" d="M1559.03,972.67h-69.07c-18.15,0-33-14.85-33-33V831.15c0-18.15,14.85-33,33-33h69.07c18.15,0,33,14.85,33,33
		v108.53C1592.03,957.82,1577.18,972.67,1559.03,972.67z"/>
	<path class="st4" d="M1543.43,952.51h-37.86c-18.15,0-33-14.85-33-33v-68.2c0-18.15,14.85-33,33-33h37.86c18.15,0,33,14.85,33,33
		v68.2C1576.43,937.66,1561.58,952.51,1543.43,952.51z"/>
	<path class="st5" d="M1523.85,929.29L1523.85,929.29c-18.15,0-33-14.85-33-33v-19.04c0-18.15,14.85-33,33-33l0,0
		c18.15,0,33,14.85,33,33v19.04C1556.85,914.44,1542,929.29,1523.85,929.29z"/>
</g>
</svg>
